# xmcd
#
# Track frame offsets:
#	150
#	12758
#	24721
#	38841
#	49190
#	61097
#	75272
#	93047
#	105810
#	118874
#	131501
#	144612
#	157169
#
# Disc length: 2293 seconds
#
# Revision: 1
# Processed by: cddbd v1.5.2PL0 Copyright (c) Steve Scherf et al.
# Submitted via: audiograbber 1.83.01
#
DISCID=9908f30d
DTITLE=Ab and Zu - Volksmusik pur
DYEAR=2008
DGENRE=volksmusik
TTITLE0=Start Polka
TTITLE1=Regentropfen
TTITLE2=Im schönsten Land der Erde
TTITLE3=Die Trödelposaune
TTITLE4=Harmonika
TTITLE5=Mondschein über den Bergen
TTITLE6=Best of Boarisch
TTITLE7=Ab and Zu
TTITLE8=Vom Schwarzwald in die Schweiz
TTITLE9=Bajazzo
TTITLE10=Der lustige Holzhauer
TTITLE11=Tasten-Knopf-Liebeleien
TTITLE12=Ein Stern
EXTD=
EXTT0=
EXTT1=
EXTT2=
EXTT3=
EXTT4=
EXTT5=
EXTT6=
EXTT7=
EXTT8=
EXTT9=
EXTT10=
EXTT11=
EXTT12=
PLAYORDER=
